<svg width="20" height="20" viewBox="0 0 20 20" fill="none" xmlns="http://www.w3.org/2000/svg">
<path d="M1.66669 1.66675H7.91669V7.91675H1.66669V1.66675Z" stroke="#333333" stroke-width="1.25" stroke-linecap="round" stroke-linejoin="round"/>
<path d="M12.0833 1.66675H18.3333V7.91675H12.0833V1.66675Z" stroke="#333333" stroke-width="1.25" stroke-linecap="round" stroke-linejoin="round"/>
<path d="M1.66669 12.0833H7.91669V18.3333H1.66669V12.0833Z" stroke="#333333" stroke-width="1.25" stroke-linecap="round" stroke-linejoin="round"/>
<path d="M12.0833 15.2083C12.0833 16.0371 12.4126 16.8319 12.9986 17.418C13.5847 18.004 14.3795 18.3333 15.2083 18.3333C16.0371 18.3333 16.832 18.004 17.418 17.418C18.0041 16.8319 18.3333 16.0371 18.3333 15.2083C18.3333 14.3795 18.0041 13.5846 17.418 12.9985C16.832 12.4125 16.0371 12.0833 15.2083 12.0833C14.3795 12.0833 13.5847 12.4125 12.9986 12.9985C12.4126 13.5846 12.0833 14.3795 12.0833 15.2083Z" stroke="#333333" stroke-width="1.25" stroke-linecap="round" stroke-linejoin="round"/>
</svg>
