<svg width="20" height="20" viewBox="0 0 20 20" fill="none" xmlns="http://www.w3.org/2000/svg">
<g clip-path="url(#clip0_8848_4030)">
<path d="M1.31781 2.2929C1.31781 2.0009 1.43228 1.72085 1.63605 1.51437C1.83981 1.30789 2.11617 1.19189 2.40433 1.19189H4.57738C4.86554 1.19189 5.1419 1.30789 5.34567 1.51437C5.54943 1.72085 5.6639 2.0009 5.6639 2.2929V17.707C5.6639 17.9991 5.54943 18.2791 5.34567 18.4856C5.1419 18.6921 4.86554 18.8081 4.57738 18.8081H2.40433C2.11617 18.8081 1.83981 18.6921 1.63605 18.4856C1.43228 18.2791 1.31781 17.9991 1.31781 17.707V2.2929Z" stroke="#333333" stroke-width="1.1" stroke-linecap="round" stroke-linejoin="round"/>
<path d="M5.66388 2.2929C5.66388 2.0009 5.77835 1.72085 5.98211 1.51437C6.18588 1.30789 6.46224 1.19189 6.7504 1.19189H8.92345C9.21161 1.19189 9.48797 1.30789 9.69174 1.51437C9.8955 1.72085 10.01 2.0009 10.01 2.2929V17.707C10.01 17.9991 9.8955 18.2791 9.69174 18.4856C9.48797 18.6921 9.21161 18.8081 8.92345 18.8081H6.7504C6.46224 18.8081 6.18588 18.6921 5.98211 18.4856C5.77835 18.2791 5.66388 17.9991 5.66388 17.707V2.2929Z" stroke="#333333" stroke-width="1.1" stroke-linecap="round" stroke-linejoin="round"/>
<path d="M1.31781 5.59595H5.6639" stroke="#333333" stroke-width="1.1" stroke-linecap="round" stroke-linejoin="round"/>
<path d="M5.66388 14.4041H10.01" stroke="#333333" stroke-width="1.1" stroke-linecap="round" stroke-linejoin="round"/>
<path d="M10.8825 1.80856L13.2554 1.22502C13.8661 1.07638 14.4865 1.43421 14.6484 2.03096L18.6631 16.8043C18.7339 17.0748 18.7025 17.3623 18.5751 17.6105C18.4477 17.8588 18.2334 18.0499 17.9742 18.1464L17.8297 18.1916L15.4567 18.7751C14.8461 18.9238 14.2257 18.5659 14.0638 17.9692L10.0491 3.19583C9.97827 2.92537 10.0096 2.63785 10.1371 2.3896C10.2645 2.14134 10.4788 1.95023 10.738 1.8537L10.8825 1.80856Z" stroke="#333333" stroke-width="1.1" stroke-linecap="round" stroke-linejoin="round"/>
<path d="M11.0965 6.69696L15.4426 5.59595" stroke="#333333" stroke-width="1.1" stroke-linecap="round" stroke-linejoin="round"/>
<path d="M13.2695 14.4039L17.532 13.325" stroke="#333333" stroke-width="1.1" stroke-linecap="round" stroke-linejoin="round"/>
</g>
<defs>
<clipPath id="clip0_8848_4030">
<rect width="20" height="20" fill="white"/>
</clipPath>
</defs>
</svg>
